#!OML:ASF F:\VICON\USERDATA\INSTALL\rory3\rory3.ASF
:FULLY-SPECIFIED
:DEGREES
72
root 0.0744326105106663 17.928707069377314 9.329396014589893 -2.8606566205832884 3.5065213814074165 -0.9977183182353797
lfemur 11.232709936183063 -3.8561164083571047 -20.44689331210009
ltibia 42.505455159886985
lfoot 7.026889840188317 -14.0634019843472
ltoes -14.610227255998039
rfemur -25.04226879266498 5.192523154452761 23.8917434360205
rtibia 27.20535387068354
rfoot -3.900079529541716 -4.987949962211588
rtoes 5.156868416717318
lowerback 9.34451932759203 -2.0445704914963425 -1.822330475231927
upperback 0.41764290161788786 -2.7860546594840594 2.8244986828886196
thorax -4.647486474064466 -1.3142320058946355 4.138341429599211
lowerneck -16.579075890486383 -2.6839707997711075 -2.1234923921698545
upperneck 21.73292787836835 -3.28471971235267 0.05731948238419504
head 9.669587469467025 -1.6657610698396825 0.00422086236111982
lclavicle -1.8681141409949255e-15 9.850913850621855e-16
lhumerus -24.238353029475725 -4.692093215629076 83.96853875034037
lradius 31.286531024311003
lwrist 6.9461998714153985
lhand -28.175176434381207 24.256304711529808
lfingers 7.12502
lthumb -1.5550863491919045 54.216396314233315
rclavicle -1.868114140994925e-15 9.850913850621855e-16
rhumerus -34.32013451241144 -29.167514025354315 -72.64370076879021
rradius 18.87557338187041
rwrist 14.227672841026692
rhand -17.233480650357773 22.16633615837788
rfingers 7.12502
rthumb 9.00998946611192 -7.620737469335325
73
root -0.01845318317262118 18.028822128501385 9.081222113993638 -3.385696150068573 3.1937134274757972 -2.575094184078566
lfemur 5.274951628455449 -2.7785685467162167 -18.026280008744322
ltibia 52.396020491384874
lfoot 10.774483054351897 -15.756581911368224
ltoes -11.713926983923834
rfemur -22.28942575963672 5.320404233536784 26.093458459603088
rtibia 27.601875841983077
rfoot -5.618323523854293 -5.131694733568923
rtoes 7.03171669102921
lowerback 9.432494131264498 -1.9244682721067936 -0.6482350899492881
upperback 0.4229960722276217 -2.4776678943898385 3.062582171876232
thorax -4.75019248894643 -1.1827029078759428 3.564208616225857
lowerneck -16.42052835876663 -2.7532558294106115 -2.127305314227929
upperneck 21.75792753428154 -3.4050098769933403 0.1688088446023408
head 9.644724057516719 -1.7113408504099885 0.01298631063709177
lclavicle -2.5203552519243677e-15 3.8429809937195805e-16
lhumerus -26.088545886526237 -4.633545916475893 84.28057890162516
lradius 30.32742664622824
lwrist 6.05582816973441
lhand -27.70847910562161 24.330011663435737
lfingers 7.12502
lthumb -1.1043500342074721 54.296548309683416
rclavicle -2.5203552519243677e-15 3.8429809937195805e-16
rhumerus -34.0285600554201 -28.73545761491651 -73.30246934449661
rradius 18.84812286730966
rwrist 13.5349528966231
rhand -17.187336465415374 22.36581525352497
rfingers 7.12502
rthumb 9.05452413282906 -7.417235177287146
74
root -0.0656021573585987 18.130504004073114 10.467919619070681 -3.698511526169586 2.8653225236916913 -3.553355367352391
lfemur -0.04271411323374075 -1.174317921116225 -15.574354355259423
ltibia 62.147953835679985
lfoot 11.985114248266541 -15.033138749010199
ltoes -8.609129101184081
rfemur -17.882438469742596 5.774040365574615 28.49910087502748
rtibia 28.598082450884583
rfoot -7.106863085411044 -5.363683744406192
rtoes 8.555298683432508
lowerback 9.582348416661228 -1.4733050952157454 0.770724906450124
upperback 0.47755541294596215 -1.7184837351930522 3.213270037388031
thorax -4.793868429423399 -0.8354769202066552 3.0660697776197665
lowerneck -16.239616322249162 -2.8292862983437965 -2.0701414821459116
upperneck 21.79830802896624 -3.543957436949095 0.42779444306679537
head 9.638613132957186 -1.7594093005764098 0.061711567492752084
lclavicle -1.6474867850938426e-15 1.1880466309895056e-15
lhumerus -27.318701269464995 -4.045383075011781 84.62212824187351
lradius 29.681366672480035
lwrist 5.55485556323544
lhand -27.168884365612797 24.635662849670734
lfingers 7.12502
lthumb -0.5832018394067942 54.60803611228987
rclavicle -1.6474867850938426e-15 1.1880466309895056e-15
rhumerus -32.95686178756781 -26.977810401854402 -74.27243687605083
rradius 19.410752646977414
rwrist 12.700098236566488
rhand -17.053605692474587 22.62223506261021
rfingers 7.12502
rthumb 9.183583550978634 -7.157510812901015
75
root -0.12363044441577514 18.201273349435457 10.013140974842381 -3.9743089931679276 2.065018636433536 -4.599621691387995
lfemur -6.759379580261109 0.4856813826159301 -14.18876669883882
ltibia 68.65544729696356
lfoot 9.71336405593135 -13.084516050833098
ltoes -7.037309870277957
rfemur -14.54361585587914 6.0668233464866805 30.125286093032127
rtibia 27.79765197438188
rfoot -9.754808337065732 -6.1595639490061735
rtoes 8.81044140402823
lowerback 9.682040798029304 -1.0093605690784662 1.8083472526198983
upperback 0.5315455218797773 -0.9821691215008084 3.153306105538948
thorax -4.84561258695282 -0.4944086105449903 2.2797194689487696
lowerneck -16.126554178974263 -2.9317059760819957 -2.034002543012956
upperneck 21.757642931860417 -3.726003496345069 0.6316094795988345
head 9.60631271680134 -1.8239439038082095 0.08231382872207876
lclavicle -2.029463071175299e-15 8.364001812537054e-16
lhumerus -28.835263984491046 -3.7430519805194162 84.76305966882389
lradius 28.757245833221393
lwrist 5.014599033113706
lhand -26.949061016478336 24.756050443140666
lfingers 7.12502
lthumb -0.37088184969824683 54.73324754931838
rclavicle -2.029463071175299e-15 8.364001812537055e-16
rhumerus -31.766262576233125 -24.96979602810947 -75.84153813540013
rradius 20.010413407258266
rwrist 11.2087359974124
rhand -17.027870049387456 22.306097025132573
rfingers 7.12502
rthumb 9.20843271497959 -7.470105504776094
76
root -0.15702530730789582 18.23882809507411 9.07355335983009 -4.134562686783911 1.0325229324452163 -5.4270899861538275
lfemur -13.07162343946899 1.9586481797616666 -13.443703609098158
ltibia 72.11605494290328
lfoot 5.5752870054988675 -10.18550213435108
ltoes -6.389292124838226
rfemur -11.4975120140858 6.235630607668874 31.399500498888386
rtibia 27.190166813607128
rfoot -12.421147181641862 -6.698280214371735
rtoes 8.783030532554358
lowerback 9.775502902637072 -0.4616828177658535 2.7425916762372298
upperback 0.5671023673755873 -0.1488666726804344 2.989030863531406
thorax -4.898081071541729 -0.10515038671687538 1.4204333915080185
lowerneck -16.084332045474447 -3.01647053177889 -1.9677423983731344
upperneck 21.66569150736143 -3.881342170681382 0.7793863640895007
head 9.568480630028423 -1.8771047543002461 0.0835574513499291
lclavicle -2.440592259828823e-15 4.579139854612749e-16
lhumerus -30.360826278858244 -3.1562374649584983 84.72881203848188
lradius 27.83882306743386
lwrist 4.8348394582839
lhand -26.849029867043 24.722336129738785
lfingers 7.12502
lthumb -0.27424900299923394 54.70286475142553
rclavicle -2.440592259828823e-15 4.579139854612751e-16
rhumerus -30.441382921453847 -22.707080995757668 -77.43181373694402
rradius 20.781037813433073
rwrist 9.608502531494588
rhand -17.086221931290076 21.778967480076336
rfingers 7.12502
rthumb 9.15213303409236 -7.997244501907284
77
root -0.15506509849786293 18.251260803324627 9.225462452026003 -4.072691684706153 0.008361187983760399 -5.960193354477504
lfemur -18.08124366223128 3.0770913749177162 -12.795491408730111
ltibia 72.68441602325998
lfoot 1.41539638157919 -6.433945162368834
ltoes -5.867501471705781
rfemur -8.090125964791397 6.487550454546952 32.69457781798811
rtibia 27.266708838371592
rfoot -14.438450664212137 -6.915402897015092
rtoes 8.838742287128742
lowerback 9.883564495937629 0.1776374155142726 3.848294034328224
upperback 0.5947855683225549 0.8194688224918061 2.814456202031981
thorax -4.923416238477095 0.34623431264019944 0.616810802652644
lowerneck -16.086624285233256 -3.0665169873671623 -1.8648079034916698
upperneck 21.540746437363183 -3.978162792294279 0.9104069846828892
head 9.530547888769611 -1.9080672203462017 0.08879549590944832
lclavicle -2.1007851921762456e-15 7.711427830698417e-16
lhumerus -31.597844622842302 -2.220305348667458 84.6665061392519
lradius 27.263432079892358
lwrist 5.097992364979705
lhand -26.717877179395 24.855422407518457
lfingers 7.12502
lthumb -0.14756470708407438 54.83747263681649
rclavicle -2.1007851921762456e-15 7.711427830698417e-16
rhumerus -28.916153943557305 -19.940682317006175 -78.81504454126294
rradius 21.92058952352484
rwrist 8.012026124042594
rhand -17.197345237170175 21.241863216234528
rfingers 7.12502
rthumb 9.044899026939332 -8.53906013253772
78
root -0.17517293926006233 18.219966987313185 7.492612432581502 -3.903973489899996 -1.3198114429668717 -6.8430542764495925
lfemur -23.52955175959493 3.269323450209581 -12.814659166500324
ltibia 67.9314812977811
lfoot -2.9248617088784132 -3.1418177106319494
ltoes -6.033140123578736
rfemur -6.022685558455622 6.492265669776225 33.2676596247583
rtibia 25.439916659243448
rfoot -17.15748001104243 -7.540438369271514
rtoes 8.201502339067176
lowerback 9.900825101142681 0.643643341498596 4.6031528114808475
upperback 0.5568506260889483 1.529882549292682 2.5731031082768028
thorax -4.982522566599839 0.6760369900371017 -0.39120761567989903
lowerneck -16.218274360325687 -3.1166459739667034 -1.8147258109779207
upperneck 21.29021610644666 -4.0708772104393445 0.9076634200070254
head 9.455004889725808 -1.9389919877602178 0.054668458809324555
lclavicle -3.3115101157691284e-15 -3.4379747766706363e-16
lhumerus -33.39184734877269 -1.729995745105662 84.4474518809449
lradius 26.510552347500237
lwrist 5.242833872787568
lhand -26.835400526558033 24.429062446171493
lfingers 7.12502
lthumb -0.2610596881373886 54.41032302571275
rclavicle -3.3115101157691284e-15 -3.4379747766706363e-16
rhumerus -27.71924005521768 -17.60180756010446 -80.24812102024559
rradius 22.982365647714197
rwrist 5.977320691290522
rhand -17.508619045893322 20.795327644004143
rfingers 7.12502
rthumb 8.744507184751473 -8.99439556542687
